<?xml version="1.0" encoding="utf-8"?>
<!-- Generator: Adobe Illustrator 21.1.0, SVG Export Plug-In . SVG Version: 6.00 Build 0)  -->
<svg version="1.1" id="Layer_1" xmlns="http://www.w3.org/2000/svg" xmlns:xlink="http://www.w3.org/1999/xlink" x="0px" y="0px"
	 viewBox="0 0 1024 1024" style="enable-background:new 0 0 1024 1024;" xml:space="preserve">
<style type="text/css">
	.st0{clip-path:url(#SVGID_2_);}
	.st1{fill:#1BAA6E;}
	.st2{fill:#FDFDFD;}
</style>
<g>
	<defs>
		<circle id="SVGID_1_" cx="512" cy="512" r="512"/>
	</defs>
	<clipPath id="SVGID_2_">
		<use xlink:href="#SVGID_1_"  style="overflow:visible;"/>
	</clipPath>
	<g class="st0">
		<g>
			<g>
				<path class="st1" d="M1,408C1,273.8,1,139.7,0.9,5.5c0-3.7,0.8-4.6,4.6-4.6c338.3,0.1,676.7,0.1,1015,0c3.7,0,4.6,0.8,4.6,4.6
					c-0.1,338.3-0.1,676.7,0,1015c0,3.7-0.8,4.6-4.6,4.6c-136.8-0.1-273.7-0.1-410.5-0.1c0.3-2-1.5-3.3-1.8-5
					c-1.9-10.9-6.9-20.4-12.9-29.4c-7.8-11.7-18.2-20.8-30-28.2c-2.7-1.7-3.9-3.3-3.7-6.7c1.4-22.7,3.1-45.4,4.9-68.1
					c1.9-24.4,3.5-48.8,5.2-73.1c1.7-24,3.4-48.1,5.1-72.1c1.7-24.2,3.4-48.4,5.1-72.6c1.7-24.7,3.4-49.4,5.2-74.1
					c1.7-23.5,3.5-47.1,5.1-70.6c2-28.5,3.9-57.1,5.7-85.6c0.2-3,1-4.8,3.8-6.3c2.8-1.5,4.4,0,6.3,1.2c16.5,10.9,33,21.9,49.5,32.7
					c57.6,38,115.2,76,172.8,113.9c2.2,1.4,3.1,3,3.2,5.6c0.4,8.1,1.7,16.2,4.6,23.9c12.8,33.3,47.4,51.6,80.6,42.1
					c28.3-8.1,45.3-27.5,49.8-56.8c4.2-27.7-5.8-49.9-27.6-66.9c-2.5-1.9-3.2-3.8-3-6.7c1.5-16.7,2.9-33.4,4.2-50.2
					c2.3-29.5,4.6-59,6.9-88.5c1.8-22.7,3.6-45.4,5.4-68.1c0.2-1.9-0.1-3.4-0.9-5.2c-1-2.3-1.3-4.1,1.9-6.4
					c7.6-5.5,15.1-10.9,21.1-18.7c8.4-10.8,13.5-22.7,15.4-35.5c2.2-14.2,0.5-28.7-6-42c-5.2-10.6-11.8-19.9-21.3-27.6
					c-11.7-9.5-24.9-15.2-39.3-17.4c-10.2-1.6-21-1.4-31,1.7c-10.5,3.2-20.4,7.8-29.2,14.9c-43.6,35.2-36.8,101.8,13.1,127.1
					c7.1,3.6,7.1,3.6,6.5,11.7c-1.7,22-3.4,44.1-5.1,66.1c-1.7,22.2-3.5,44.4-5.2,66.6c-1.7,22.2-3.4,44.4-5.2,66.6
					c-0.4,5.2-0.6,5.3-4.9,2.4c-19.3-12.7-38.6-25.5-57.8-38.2c-51.3-33.9-102.7-67.7-154.1-101.5c-3.2-2.1-4-4-2.9-7.6
					c7.4-24.8,5.3-49-5.7-72.2c-22-46.1-72.8-68.1-120.4-51.6c-55.5,19.3-80.9,80.8-59.9,133.5c11.5,28.9,32.5,48.1,61.7,58.4
					c3.4,1.2,4.2,2.8,3.7,5.7c-1.8,9.5-1.4,19.2-2.3,28.8c-2.2,24.2-3.6,48.4-5.3,72.6c-1.7,24.5-3.4,49.1-5.2,73.6
					c-1.7,23.9-3.4,47.7-5.1,71.6c-2.3,32.3-4.6,64.7-6.8,97c-1.5,21.2-2.8,42.5-4.2,63.7c-1.6,23.4-3.2,46.8-4.9,70.1
					c-0.5,7-1.3,14-2.1,21.9c-1.2-1.4-1.7-2-2.2-2.6c-24.9-32.5-49.7-65.1-74.6-97.6c-33.6-43.9-67.2-87.7-100.7-131.7
					c-29.7-38.9-59.3-77.9-89.1-116.7c-2.6-3.4-2.8-5.4,0.2-8.7c21.1-24.2,32.6-52.7,35.1-84.6c1.5-20.1-1.1-39.8-8.1-58.8
					c-17.4-46.9-50.3-77.4-98-91.5c-27.7-8.1-55.5-7.4-82.9,1.9c-17,5.8-32.5,14.6-46.2,26.1c-6.5,5.4-12.1,11.9-17.9,18.1
					C5.8,402.3,4.8,406.3,1,408z"/>
				<path class="st2" d="M1,408c3.8-1.7,4.8-5.7,7.3-8.4c5.8-6.2,11.4-12.7,17.9-18.1c13.7-11.5,29.2-20.3,46.2-26.1
					c27.4-9.3,55.3-10,82.9-1.9c47.8,14.1,80.6,44.6,98,91.5c7.1,19,9.7,38.8,8.1,58.8c-2.4,31.9-13.9,60.4-35.1,84.6
					c-2.9,3.4-2.8,5.3-0.2,8.7c29.8,38.8,59.4,77.8,89.1,116.7c33.6,43.9,67.2,87.8,100.7,131.7c24.9,32.5,49.7,65.1,74.6,97.6
					c0.5,0.6,1,1.2,2.2,2.6c0.8-7.9,1.6-14.9,2.1-21.9c1.7-23.4,3.3-46.8,4.9-70.1c1.4-21.2,2.8-42.5,4.2-63.7
					c2.2-32.3,4.6-64.7,6.8-97c1.7-23.9,3.4-47.7,5.1-71.6c1.7-24.5,3.4-49.1,5.2-73.6c1.7-24.2,3.1-48.4,5.3-72.6
					c0.9-9.6,0.5-19.3,2.3-28.8c0.6-3-0.3-4.5-3.7-5.7c-29.2-10.2-50.2-29.5-61.7-58.4c-21-52.6,4.4-114.2,59.9-133.5
					c47.6-16.6,98.4,5.5,120.4,51.6c11.1,23.2,13.1,47.4,5.7,72.2c-1.1,3.6-0.2,5.6,2.9,7.6c51.4,33.7,102.8,67.6,154.1,101.5
					c19.3,12.7,38.6,25.5,57.8,38.2c4.4,2.9,4.5,2.8,4.9-2.4c1.7-22.2,3.4-44.4,5.2-66.6c1.7-22.2,3.5-44.4,5.2-66.6
					c1.7-22,3.4-44.1,5.1-66.1c0.6-8.1,0.7-8.1-6.5-11.7c-49.9-25.3-56.7-91.9-13.1-127.1c8.8-7.1,18.7-11.7,29.2-14.9
					c10-3.1,20.8-3.3,31-1.7c14.4,2.3,27.6,7.9,39.3,17.4c9.5,7.7,16.1,17,21.3,27.6c6.5,13.3,8.2,27.8,6,42
					c-2,12.8-7.1,24.8-15.4,35.5c-6,7.8-13.6,13.2-21.1,18.7c-3.2,2.3-2.9,4-1.9,6.4c0.8,1.8,1,3.3,0.9,5.2
					c-1.9,22.7-3.6,45.4-5.4,68.1c-2.3,29.5-4.5,59-6.9,88.5c-1.3,16.7-2.8,33.4-4.2,50.2c-0.3,2.9,0.5,4.7,3,6.7
					c21.8,17,31.9,39.2,27.6,66.9c-4.5,29.3-21.5,48.8-49.8,56.8c-33.2,9.4-67.8-8.8-80.6-42.1c-3-7.7-4.2-15.7-4.6-23.9
					c-0.1-2.6-1-4.2-3.2-5.6C772.6,543,715,505,657.4,467c-16.5-10.9-33-21.8-49.5-32.7c-1.9-1.2-3.5-2.8-6.3-1.2
					c-2.8,1.5-3.6,3.3-3.8,6.3c-1.8,28.5-3.7,57.1-5.7,85.6c-1.6,23.5-3.4,47.1-5.1,70.6c-1.8,24.7-3.4,49.4-5.2,74.1
					c-1.7,24.2-3.4,48.4-5.1,72.6c-1.7,24-3.4,48.1-5.1,72.1c-1.7,24.4-3.3,48.8-5.2,73.1c-1.8,22.7-3.5,45.4-4.9,68.1
					c-0.2,3.4,1,5.1,3.7,6.7c11.9,7.4,22.2,16.5,30,28.2c6,9,11,18.5,12.9,29.4c0.3,1.8,2.1,3,1.8,5c-65.7,0-131.3,0-197,0
					c-0.1-1-0.4-2-0.1-2.9c3.7-13.6,9.4-26.4,18.6-37.2c1.7-2,1.4-3.1,0-5.1c-21.8-28.4-43.5-56.9-65.2-85.3
					c-36-47.1-72-94.1-108-141.2c-30.6-40.1-61.2-80.1-91.8-120.3c-1.7-2.2-3.2-2.8-5.9-2c-16.7,4.9-33.7,6.9-51.2,5.3
					c-22.3-2.1-42.7-9.1-61.7-20.9c-5-3.1-9.3-7.1-13.8-11c-8.3-7.1-17.3-13.2-23.6-22.4c-2.7-4-6.3-7.3-9.5-11
					C1,516.7,1,462.3,1,408z"/>
				<path class="st1" d="M1,571c3.2,3.6,6.8,7,9.5,11c6.3,9.2,15.4,15.3,23.6,22.4c4.5,3.8,8.7,7.8,13.8,11
					c18.9,11.8,39.4,18.8,61.7,20.9c17.5,1.6,34.4-0.4,51.2-5.3c2.7-0.8,4.2-0.1,5.9,2c30.5,40.1,61.1,80.2,91.8,120.3
					c36,47.1,72,94.1,108,141.2c21.7,28.4,43.4,56.9,65.2,85.3c1.5,1.9,1.7,3.1,0,5.1c-9.2,10.9-14.9,23.6-18.6,37.2
					c-0.2,0.9,0.1,1.9,0.1,2.9c-135.9,0-271.8,0-407.8,0.1c-3.6,0-4.3-0.8-4.3-4.4C1,870.8,1,720.9,1,571z"/>
			</g>
		</g>
		
			<rect x="945.5" y="301.8" transform="matrix(0.9979 6.536400e-02 -6.536400e-02 0.9979 22.1259 -61.4509)" class="st2" width="9.4" height="11.3"/>
		<rect x="954" y="309.2" class="st2" width="1" height="0.3"/>
	</g>
</g>
</svg>
